# xmcd
# 
# Track frame offsets:
#     150
#     1819
#     23727
#     43176
#     59194
#     82698
#     100718
#     115087
#     142407
#     179276
#     197015
# 
# Disc length: 2985
# 
# Revision: 1
# Processed by: cddbd v1.5.2PL0 Copyright (c) Steve Scherf et al.
# Submitted via: fre:ac v1.1beta1pre4
# 
DISCID=8e0ba70b
DTITLE=Michael Martin Murphy - Campfire On The Road
DYEAR=2012
DGENRE=Western
TTITLE0=Intro
TTITLE1=Campfire On The Road
TTITLE2=Boy From The Country
TTITLE3=Lost River
TTITLE4=Crystal
TTITLE5=Texas Morning
TTITLE6=West Texas Highway
TTITLE7=Spanish Is The Loving Tongue
TTITLE8=Old Chisholm Trail
TTITLE9=Geronimo's Cadillac
TTITLE10=Red River Valley - Campfire Reprise
EXTD=
EXTT0=
EXTT1=
EXTT2=
EXTT3=
EXTT4=
EXTT5=
EXTT6=
EXTT7=
EXTT8=
EXTT9=
EXTT10=
PLAYORDER=
